<svg width="88" height="22" viewBox="0 0 88 22" fill="none" xmlns="http://www.w3.org/2000/svg">
<path d="M17.4167 3.66634H14.6667V1.83301H12.8333V3.66634H9.16667V1.83301H7.33333V3.66634H4.58333C3.57225 3.66634 2.75 4.48859 2.75 5.49967V18.333C2.75 19.3441 3.57225 20.1663 4.58333 20.1663H17.4167C18.4278 20.1663 19.25 19.3441 19.25 18.333V5.49967C19.25 4.48859 18.4278 3.66634 17.4167 3.66634ZM4.58333 18.333V6.41634H17.4167V5.49967L17.4185 18.333H4.58333Z" fill="black"/>
<path d="M6.41675 8.25H15.5834V10.0833H6.41675V8.25ZM6.41675 11.9167H11.0001V13.75H6.41675V11.9167Z" fill="black"/>
<path d="M23.321 18V7.09091H27.0071C27.8629 7.09091 28.5625 7.24538 29.1058 7.55433C29.6527 7.85973 30.0575 8.27344 30.3203 8.79545C30.5831 9.31747 30.7145 9.89986 30.7145 10.5426C30.7145 11.1854 30.5831 11.7695 30.3203 12.2951C30.0611 12.8207 29.6598 13.2397 29.1165 13.5522C28.5732 13.8612 27.8771 14.0156 27.0284 14.0156H24.3864V12.8438H26.9858C27.5717 12.8438 28.0423 12.7425 28.3974 12.5401C28.7525 12.3377 29.0099 12.0643 29.1697 11.7198C29.3331 11.3718 29.4148 10.9794 29.4148 10.5426C29.4148 10.1058 29.3331 9.7152 29.1697 9.37074C29.0099 9.02628 28.7507 8.75639 28.392 8.56108C28.0334 8.36222 27.5575 8.26278 26.9645 8.26278H24.642V18H23.321ZM33.9292 7.09091V18H32.6721V7.09091H33.9292ZM38.6393 18.1918C38.1208 18.1918 37.6503 18.0941 37.2277 17.8988C36.8051 17.6999 36.4695 17.4141 36.221 17.0412C35.9724 16.6648 35.8481 16.2102 35.8481 15.6776C35.8481 15.2088 35.9404 14.8288 36.1251 14.5376C36.3097 14.2429 36.5566 14.0121 36.8655 13.8452C37.1744 13.6783 37.5154 13.554 37.8882 13.4723C38.2646 13.3871 38.6428 13.3196 39.0228 13.2699C39.52 13.206 39.923 13.158 40.232 13.1261C40.5445 13.0906 40.7718 13.032 40.9138 12.9503C41.0594 12.8686 41.1322 12.7266 41.1322 12.5241V12.4815C41.1322 11.956 40.9884 11.5476 40.7007 11.2564C40.4166 10.9652 39.9852 10.8196 39.4063 10.8196C38.8062 10.8196 38.3357 10.951 37.9948 11.2138C37.6539 11.4766 37.4142 11.7571 37.2757 12.0554L36.0825 11.6293C36.2955 11.1321 36.5796 10.745 36.9347 10.468C37.2934 10.1875 37.684 9.99219 38.1066 9.8821C38.5328 9.76847 38.9518 9.71165 39.3637 9.71165C39.6265 9.71165 39.9284 9.74361 40.2693 9.80753C40.6137 9.8679 40.9458 9.99396 41.2654 10.1857C41.5885 10.3775 41.8566 10.6669 42.0697 11.054C42.2828 11.4411 42.3893 11.9595 42.3893 12.6094V18H41.1322V16.892H41.0683C40.983 17.0696 40.841 17.2596 40.6421 17.462C40.4433 17.6644 40.1787 17.8366 39.8485 17.9787C39.5182 18.1207 39.1151 18.1918 38.6393 18.1918ZM38.8311 17.0625C39.3282 17.0625 39.7472 16.9648 40.0882 16.7695C40.4326 16.5742 40.6919 16.3221 40.8659 16.0131C41.0434 15.7042 41.1322 15.3793 41.1322 15.0384V13.8878C41.0789 13.9517 40.9617 14.0103 40.7806 14.0636C40.6031 14.1133 40.3971 14.1577 40.1627 14.1967C39.9319 14.2322 39.7064 14.2642 39.4862 14.2926C39.2696 14.3175 39.0938 14.3388 38.9589 14.3565C38.6322 14.3991 38.3268 14.4684 38.0427 14.5643C37.7622 14.6566 37.5349 14.7969 37.3609 14.9851C37.1904 15.1697 37.1052 15.4219 37.1052 15.7415C37.1052 16.1783 37.2668 16.5085 37.5899 16.7322C37.9166 16.9524 38.3303 17.0625 38.8311 17.0625ZM45.9409 13.0781V18H44.6838V9.81818H45.8983V11.0966H46.0048C46.1966 10.6811 46.4877 10.3473 46.8784 10.0952C47.269 9.83949 47.7733 9.71165 48.3912 9.71165C48.9451 9.71165 49.4299 9.82528 49.8453 10.0526C50.2608 10.2763 50.584 10.6172 50.8148 11.0753C51.0456 11.5298 51.161 12.1051 51.161 12.8011V18H49.9039V12.8864C49.9039 12.2436 49.737 11.7429 49.4032 11.3842C49.0694 11.022 48.6113 10.8409 48.0289 10.8409C47.6277 10.8409 47.269 10.9279 46.9529 11.1019C46.6404 11.2759 46.3936 11.5298 46.2125 11.8636C46.0314 12.1974 45.9409 12.6023 45.9409 13.0781ZM58.2948 7.09091L61.5335 16.2741H61.6613L64.8999 7.09091H66.2849L62.2792 18H60.9156L56.9099 7.09091H58.2948ZM67.3875 8.26278V7.09091H75.5693V8.26278H72.1389V18H70.8179V8.26278H67.3875ZM77.6081 18V7.09091H78.9292V12.5028H79.057L83.9576 7.09091H85.6834L81.1025 12.0128L85.6834 18H84.0854L80.2928 12.929L78.9292 14.4631V18H77.6081Z" fill="black"/>
</svg>
